<mxfile host="app.diagrams.net" modified="2023-09-25T17:49:17.751Z" agent="Mozilla/5.0 (Windows NT 10.0; Win64; x64) AppleWebKit/537.36 (KHTML, like Gecko) Chrome/117.0.0.0 Safari/537.36" etag="GjxUrUAgNEJwJy21c0NV" version="21.8.2" type="device">
  <diagram name="Page-1" id="B-xTR8N399dL0kmrf_mS">
    <mxGraphModel dx="8500" dy="3960" grid="1" gridSize="10" guides="1" tooltips="1" connect="1" arrows="1" fold="1" page="1" pageScale="1" pageWidth="1500" pageHeight="2000" math="0" shadow="0">
      <root>
        <mxCell id="0" />
        <mxCell id="1" parent="0" />
        <mxCell id="UF56KhOBGK7OnS81mWjl-37" value="Admin log" style="rounded=0;whiteSpace=wrap;html=1;" parent="1" vertex="1">
          <mxGeometry x="1160" y="220" width="150" height="90" as="geometry" />
        </mxCell>
        <mxCell id="UF56KhOBGK7OnS81mWjl-38" value="admin id" style="ellipse;whiteSpace=wrap;html=1;fillColor=#e8e8e8;" parent="1" vertex="1">
          <mxGeometry x="960" y="150" width="120" height="80" as="geometry" />
        </mxCell>
        <mxCell id="UF56KhOBGK7OnS81mWjl-39" value="&lt;u&gt;Id&lt;/u&gt;" style="ellipse;whiteSpace=wrap;html=1;fillColor=#e8e8e8;strokeColor=#36393d;" parent="1" vertex="1">
          <mxGeometry x="920" y="230" width="120" height="80" as="geometry" />
        </mxCell>
        <mxCell id="UF56KhOBGK7OnS81mWjl-40" value="ip" style="ellipse;whiteSpace=wrap;html=1;fillColor=#e8e8e8;" parent="1" vertex="1">
          <mxGeometry x="1050" y="90" width="120" height="80" as="geometry" />
        </mxCell>
        <mxCell id="UF56KhOBGK7OnS81mWjl-43" value="logintime" style="ellipse;whiteSpace=wrap;html=1;fillColor=#e8e8e8;" parent="1" vertex="1">
          <mxGeometry x="920" y="320" width="120" height="80" as="geometry" />
        </mxCell>
        <mxCell id="UF56KhOBGK7OnS81mWjl-44" value="" style="endArrow=none;html=1;rounded=0;exitX=0;exitY=0.5;exitDx=0;exitDy=0;" parent="1" source="UF56KhOBGK7OnS81mWjl-37" target="UF56KhOBGK7OnS81mWjl-40" edge="1">
          <mxGeometry width="50" height="50" relative="1" as="geometry">
            <mxPoint x="1180" y="310" as="sourcePoint" />
            <mxPoint x="1390" y="200" as="targetPoint" />
          </mxGeometry>
        </mxCell>
        <mxCell id="UF56KhOBGK7OnS81mWjl-45" value="" style="endArrow=none;html=1;rounded=0;entryX=0.5;entryY=1;entryDx=0;entryDy=0;exitX=0;exitY=0.5;exitDx=0;exitDy=0;" parent="1" source="UF56KhOBGK7OnS81mWjl-37" target="UF56KhOBGK7OnS81mWjl-38" edge="1">
          <mxGeometry width="50" height="50" relative="1" as="geometry">
            <mxPoint x="1160" y="315" as="sourcePoint" />
            <mxPoint x="1270" y="210" as="targetPoint" />
          </mxGeometry>
        </mxCell>
        <mxCell id="UF56KhOBGK7OnS81mWjl-46" value="" style="endArrow=none;html=1;rounded=0;entryX=0;entryY=0.5;entryDx=0;entryDy=0;" parent="1" source="UF56KhOBGK7OnS81mWjl-39" target="UF56KhOBGK7OnS81mWjl-37" edge="1">
          <mxGeometry width="50" height="50" relative="1" as="geometry">
            <mxPoint x="1330" y="390" as="sourcePoint" />
            <mxPoint x="1190" y="300" as="targetPoint" />
          </mxGeometry>
        </mxCell>
        <mxCell id="UF56KhOBGK7OnS81mWjl-47" value="" style="endArrow=none;html=1;rounded=0;exitX=0.931;exitY=0.771;exitDx=0;exitDy=0;exitPerimeter=0;entryX=0;entryY=0.5;entryDx=0;entryDy=0;" parent="1" source="UF56KhOBGK7OnS81mWjl-43" target="UF56KhOBGK7OnS81mWjl-37" edge="1">
          <mxGeometry width="50" height="50" relative="1" as="geometry">
            <mxPoint x="1140" y="350" as="sourcePoint" />
            <mxPoint x="1190" y="300" as="targetPoint" />
          </mxGeometry>
        </mxCell>
        <mxCell id="UF56KhOBGK7OnS81mWjl-50" value="Courses" style="rounded=0;whiteSpace=wrap;html=1;direction=west;" parent="1" vertex="1">
          <mxGeometry x="575" y="1551.59" width="150" height="90" as="geometry" />
        </mxCell>
        <mxCell id="UF56KhOBGK7OnS81mWjl-51" value="course_code" style="ellipse;whiteSpace=wrap;html=1;fillColor=#e8e8e8;direction=west;" parent="1" vertex="1">
          <mxGeometry x="975" y="1491.59" width="120" height="80" as="geometry" />
        </mxCell>
        <mxCell id="UF56KhOBGK7OnS81mWjl-52" value="&lt;u&gt;ID&lt;/u&gt;" style="ellipse;whiteSpace=wrap;html=1;fillColor=#e8e8e8;strokeColor=#36393d;direction=west;" parent="1" vertex="1">
          <mxGeometry x="893" y="1581.59" width="120" height="80" as="geometry" />
        </mxCell>
        <mxCell id="UF56KhOBGK7OnS81mWjl-53" value="Email&lt;br&gt;" style="ellipse;whiteSpace=wrap;html=1;fillColor=#e8e8e8;direction=west;" parent="1" vertex="1">
          <mxGeometry x="975" y="1380" width="120" height="80" as="geometry" />
        </mxCell>
        <mxCell id="UF56KhOBGK7OnS81mWjl-55" value="posting_date" style="ellipse;whiteSpace=wrap;html=1;fillColor=#e8e8e8;direction=west;" parent="1" vertex="1">
          <mxGeometry x="923" y="1761.59" width="120" height="80" as="geometry" />
        </mxCell>
        <mxCell id="UF56KhOBGK7OnS81mWjl-56" value="course_fn" style="ellipse;whiteSpace=wrap;html=1;fillColor=#e8e8e8;direction=west;" parent="1" vertex="1">
          <mxGeometry x="903" y="1671.59" width="120" height="80" as="geometry" />
        </mxCell>
        <mxCell id="UF56KhOBGK7OnS81mWjl-57" value="" style="endArrow=none;html=1;rounded=0;exitX=0;exitY=0.5;exitDx=0;exitDy=0;entryX=0.969;entryY=0.376;entryDx=0;entryDy=0;entryPerimeter=0;" parent="1" source="UF56KhOBGK7OnS81mWjl-50" target="UF56KhOBGK7OnS81mWjl-53" edge="1">
          <mxGeometry width="50" height="50" relative="1" as="geometry">
            <mxPoint x="1163" y="1661.59" as="sourcePoint" />
            <mxPoint x="972.7560697753825" y="1429.9954013579315" as="targetPoint" />
          </mxGeometry>
        </mxCell>
        <mxCell id="UF56KhOBGK7OnS81mWjl-58" value="" style="endArrow=none;html=1;rounded=0;entryX=0.981;entryY=0.606;entryDx=0;entryDy=0;exitX=0;exitY=0.5;exitDx=0;exitDy=0;entryPerimeter=0;" parent="1" source="UF56KhOBGK7OnS81mWjl-50" target="UF56KhOBGK7OnS81mWjl-51" edge="1">
          <mxGeometry width="50" height="50" relative="1" as="geometry">
            <mxPoint x="1143" y="1666.59" as="sourcePoint" />
            <mxPoint x="1253" y="1561.59" as="targetPoint" />
          </mxGeometry>
        </mxCell>
        <mxCell id="UF56KhOBGK7OnS81mWjl-59" value="" style="endArrow=none;html=1;rounded=0;entryX=0;entryY=0.5;entryDx=0;entryDy=0;" parent="1" source="UF56KhOBGK7OnS81mWjl-52" target="UF56KhOBGK7OnS81mWjl-50" edge="1">
          <mxGeometry width="50" height="50" relative="1" as="geometry">
            <mxPoint x="1313" y="1741.59" as="sourcePoint" />
            <mxPoint x="1173" y="1651.59" as="targetPoint" />
          </mxGeometry>
        </mxCell>
        <mxCell id="UF56KhOBGK7OnS81mWjl-60" value="" style="endArrow=none;html=1;rounded=0;exitX=0.931;exitY=0.771;exitDx=0;exitDy=0;entryX=0;entryY=0.5;entryDx=0;entryDy=0;exitPerimeter=0;" parent="1" source="UF56KhOBGK7OnS81mWjl-56" target="UF56KhOBGK7OnS81mWjl-50" edge="1">
          <mxGeometry width="50" height="50" relative="1" as="geometry">
            <mxPoint x="1123" y="1701.59" as="sourcePoint" />
            <mxPoint x="1173" y="1651.59" as="targetPoint" />
          </mxGeometry>
        </mxCell>
        <mxCell id="UF56KhOBGK7OnS81mWjl-61" value="" style="endArrow=none;html=1;rounded=0;entryX=0;entryY=0.5;entryDx=0;entryDy=0;" parent="1" source="UF56KhOBGK7OnS81mWjl-55" target="UF56KhOBGK7OnS81mWjl-50" edge="1">
          <mxGeometry width="50" height="50" relative="1" as="geometry">
            <mxPoint x="1123" y="1751.59" as="sourcePoint" />
            <mxPoint x="1173" y="1651.59" as="targetPoint" />
          </mxGeometry>
        </mxCell>
        <mxCell id="UF56KhOBGK7OnS81mWjl-63" value="Registration" style="rounded=0;whiteSpace=wrap;html=1;" parent="1" vertex="1">
          <mxGeometry x="1065" y="2491.59" width="150" height="90" as="geometry" />
        </mxCell>
        <mxCell id="UF56KhOBGK7OnS81mWjl-64" value="roomno" style="ellipse;whiteSpace=wrap;html=1;fillColor=#e8e8e8;" parent="1" vertex="1">
          <mxGeometry x="375" y="2331.59" width="120" height="80" as="geometry" />
        </mxCell>
        <mxCell id="UF56KhOBGK7OnS81mWjl-65" value="seater" style="ellipse;whiteSpace=wrap;html=1;fillColor=#e8e8e8;strokeColor=#36393d;" parent="1" vertex="1">
          <mxGeometry x="355" y="2431.59" width="120" height="80" as="geometry" />
        </mxCell>
        <mxCell id="UF56KhOBGK7OnS81mWjl-66" value="id" style="ellipse;whiteSpace=wrap;html=1;fillColor=#e8e8e8;" parent="1" vertex="1">
          <mxGeometry x="415" y="2241.59" width="120" height="80" as="geometry" />
        </mxCell>
        <mxCell id="UF56KhOBGK7OnS81mWjl-67" value="stayfrom" style="ellipse;whiteSpace=wrap;html=1;fillColor=#e8e8e8;" parent="1" vertex="1">
          <mxGeometry x="455" y="2711.59" width="120" height="80" as="geometry" />
        </mxCell>
        <mxCell id="UF56KhOBGK7OnS81mWjl-68" value="foodstatus" style="ellipse;whiteSpace=wrap;html=1;fillColor=#e8e8e8;" parent="1" vertex="1">
          <mxGeometry x="405" y="2621.59" width="120" height="80" as="geometry" />
        </mxCell>
        <mxCell id="UF56KhOBGK7OnS81mWjl-69" value="feespm" style="ellipse;whiteSpace=wrap;html=1;fillColor=#e8e8e8;" parent="1" vertex="1">
          <mxGeometry x="355" y="2531.59" width="120" height="80" as="geometry" />
        </mxCell>
        <mxCell id="UF56KhOBGK7OnS81mWjl-70" value="" style="endArrow=none;html=1;rounded=0;exitX=0;exitY=0.5;exitDx=0;exitDy=0;" parent="1" source="UF56KhOBGK7OnS81mWjl-63" target="UF56KhOBGK7OnS81mWjl-66" edge="1">
          <mxGeometry width="50" height="50" relative="1" as="geometry">
            <mxPoint x="745" y="2531.59" as="sourcePoint" />
            <mxPoint x="955" y="2421.59" as="targetPoint" />
          </mxGeometry>
        </mxCell>
        <mxCell id="UF56KhOBGK7OnS81mWjl-71" value="" style="endArrow=none;html=1;rounded=0;entryX=0.5;entryY=1;entryDx=0;entryDy=0;exitX=0;exitY=0.5;exitDx=0;exitDy=0;" parent="1" source="UF56KhOBGK7OnS81mWjl-63" target="UF56KhOBGK7OnS81mWjl-64" edge="1">
          <mxGeometry width="50" height="50" relative="1" as="geometry">
            <mxPoint x="725" y="2536.59" as="sourcePoint" />
            <mxPoint x="835" y="2431.59" as="targetPoint" />
          </mxGeometry>
        </mxCell>
        <mxCell id="UF56KhOBGK7OnS81mWjl-72" value="" style="endArrow=none;html=1;rounded=0;entryX=0;entryY=0.5;entryDx=0;entryDy=0;" parent="1" source="UF56KhOBGK7OnS81mWjl-65" target="UF56KhOBGK7OnS81mWjl-63" edge="1">
          <mxGeometry width="50" height="50" relative="1" as="geometry">
            <mxPoint x="895" y="2611.59" as="sourcePoint" />
            <mxPoint x="755" y="2521.59" as="targetPoint" />
          </mxGeometry>
        </mxCell>
        <mxCell id="UF56KhOBGK7OnS81mWjl-73" value="" style="endArrow=none;html=1;rounded=0;exitX=0.931;exitY=0.771;exitDx=0;exitDy=0;exitPerimeter=0;entryX=0;entryY=0.5;entryDx=0;entryDy=0;" parent="1" source="UF56KhOBGK7OnS81mWjl-69" target="UF56KhOBGK7OnS81mWjl-63" edge="1">
          <mxGeometry width="50" height="50" relative="1" as="geometry">
            <mxPoint x="705" y="2571.59" as="sourcePoint" />
            <mxPoint x="755" y="2521.59" as="targetPoint" />
          </mxGeometry>
        </mxCell>
        <mxCell id="UF56KhOBGK7OnS81mWjl-74" value="" style="endArrow=none;html=1;rounded=0;entryX=0;entryY=0.5;entryDx=0;entryDy=0;" parent="1" source="UF56KhOBGK7OnS81mWjl-68" target="UF56KhOBGK7OnS81mWjl-63" edge="1">
          <mxGeometry width="50" height="50" relative="1" as="geometry">
            <mxPoint x="705" y="2621.59" as="sourcePoint" />
            <mxPoint x="755" y="2521.59" as="targetPoint" />
          </mxGeometry>
        </mxCell>
        <mxCell id="UF56KhOBGK7OnS81mWjl-75" value="" style="endArrow=none;html=1;rounded=0;exitX=0;exitY=0.5;exitDx=0;exitDy=0;" parent="1" source="UF56KhOBGK7OnS81mWjl-63" target="UF56KhOBGK7OnS81mWjl-67" edge="1">
          <mxGeometry width="50" height="50" relative="1" as="geometry">
            <mxPoint x="755" y="2521.59" as="sourcePoint" />
            <mxPoint x="945" y="2561.59" as="targetPoint" />
          </mxGeometry>
        </mxCell>
        <mxCell id="UF56KhOBGK7OnS81mWjl-86" value="course" style="ellipse;whiteSpace=wrap;html=1;fillColor=#e8e8e8;" parent="1" vertex="1">
          <mxGeometry x="485" y="2151.59" width="120" height="80" as="geometry" />
        </mxCell>
        <mxCell id="UF56KhOBGK7OnS81mWjl-88" value="duration" style="ellipse;whiteSpace=wrap;html=1;fillColor=#e8e8e8;" parent="1" vertex="1">
          <mxGeometry x="545" y="2781.59" width="120" height="80" as="geometry" />
        </mxCell>
        <mxCell id="UF56KhOBGK7OnS81mWjl-92" value="" style="endArrow=none;html=1;rounded=0;exitX=0;exitY=0.444;exitDx=0;exitDy=0;exitPerimeter=0;" parent="1" source="UF56KhOBGK7OnS81mWjl-63" target="UF56KhOBGK7OnS81mWjl-88" edge="1">
          <mxGeometry width="50" height="50" relative="1" as="geometry">
            <mxPoint x="975" y="2561.59" as="sourcePoint" />
            <mxPoint x="1015" y="2961.59" as="targetPoint" />
          </mxGeometry>
        </mxCell>
        <mxCell id="UF56KhOBGK7OnS81mWjl-93" value="" style="endArrow=none;html=1;rounded=0;entryX=0.5;entryY=1;entryDx=0;entryDy=0;exitX=0;exitY=0.5;exitDx=0;exitDy=0;" parent="1" source="UF56KhOBGK7OnS81mWjl-63" target="UF56KhOBGK7OnS81mWjl-86" edge="1">
          <mxGeometry width="50" height="50" relative="1" as="geometry">
            <mxPoint x="805" y="3076.59" as="sourcePoint" />
            <mxPoint x="895" y="2971.59" as="targetPoint" />
          </mxGeometry>
        </mxCell>
        <mxCell id="UF56KhOBGK7OnS81mWjl-100" value="regno" style="ellipse;whiteSpace=wrap;html=1;fillColor=#e8e8e8;" parent="1" vertex="1">
          <mxGeometry x="605" y="2866.59" width="120" height="80" as="geometry" />
        </mxCell>
        <mxCell id="UF56KhOBGK7OnS81mWjl-103" value="" style="endArrow=none;html=1;rounded=0;exitX=0;exitY=0.5;exitDx=0;exitDy=0;entryX=0.5;entryY=0;entryDx=0;entryDy=0;" parent="1" source="UF56KhOBGK7OnS81mWjl-63" target="UF56KhOBGK7OnS81mWjl-100" edge="1">
          <mxGeometry width="50" height="50" relative="1" as="geometry">
            <mxPoint x="985" y="2561.59" as="sourcePoint" />
            <mxPoint x="673" y="2820.59" as="targetPoint" />
          </mxGeometry>
        </mxCell>
        <mxCell id="UF56KhOBGK7OnS81mWjl-104" value="firstName" style="ellipse;whiteSpace=wrap;html=1;fillColor=#e8e8e8;" parent="1" vertex="1">
          <mxGeometry x="665" y="2956.59" width="120" height="80" as="geometry" />
        </mxCell>
        <mxCell id="UF56KhOBGK7OnS81mWjl-105" value="" style="endArrow=none;html=1;rounded=0;entryX=0.5;entryY=0;entryDx=0;entryDy=0;exitX=-0.007;exitY=0.844;exitDx=0;exitDy=0;exitPerimeter=0;" parent="1" source="UF56KhOBGK7OnS81mWjl-63" target="UF56KhOBGK7OnS81mWjl-104" edge="1">
          <mxGeometry width="50" height="50" relative="1" as="geometry">
            <mxPoint x="975" y="2561.59" as="sourcePoint" />
            <mxPoint x="765" y="2851.59" as="targetPoint" />
          </mxGeometry>
        </mxCell>
        <mxCell id="UF56KhOBGK7OnS81mWjl-106" value="middleName" style="ellipse;whiteSpace=wrap;html=1;fillColor=#e8e8e8;" parent="1" vertex="1">
          <mxGeometry x="575" y="2081.59" width="100" height="60" as="geometry" />
        </mxCell>
        <mxCell id="UF56KhOBGK7OnS81mWjl-107" value="lastName" style="ellipse;whiteSpace=wrap;html=1;fillColor=#e8e8e8;" parent="1" vertex="1">
          <mxGeometry x="655" y="2021.59" width="100" height="60" as="geometry" />
        </mxCell>
        <mxCell id="UF56KhOBGK7OnS81mWjl-108" value="" style="endArrow=none;html=1;rounded=0;entryX=0.598;entryY=1.001;entryDx=0;entryDy=0;entryPerimeter=0;exitX=0;exitY=0.25;exitDx=0;exitDy=0;" parent="1" source="UF56KhOBGK7OnS81mWjl-63" target="UF56KhOBGK7OnS81mWjl-106" edge="1">
          <mxGeometry width="50" height="50" relative="1" as="geometry">
            <mxPoint x="975" y="2551.59" as="sourcePoint" />
            <mxPoint x="785" y="2331.59" as="targetPoint" />
          </mxGeometry>
        </mxCell>
        <mxCell id="UF56KhOBGK7OnS81mWjl-109" value="" style="endArrow=none;html=1;rounded=0;exitX=0.25;exitY=0;exitDx=0;exitDy=0;entryX=0.319;entryY=0.967;entryDx=0;entryDy=0;entryPerimeter=0;" parent="1" source="UF56KhOBGK7OnS81mWjl-63" target="UF56KhOBGK7OnS81mWjl-110" edge="1">
          <mxGeometry width="50" height="50" relative="1" as="geometry">
            <mxPoint x="1005" y="2501.59" as="sourcePoint" />
            <mxPoint x="1081.6752325015477" y="2247.5483277706735" as="targetPoint" />
          </mxGeometry>
        </mxCell>
        <mxCell id="UF56KhOBGK7OnS81mWjl-110" value="gender" style="ellipse;whiteSpace=wrap;html=1;fillColor=#e8e8e8;" parent="1" vertex="1">
          <mxGeometry x="745" y="1981.59" width="100" height="70" as="geometry" />
        </mxCell>
        <mxCell id="UF56KhOBGK7OnS81mWjl-111" value="emailid" style="ellipse;whiteSpace=wrap;html=1;fillColor=#e8e8e8;" parent="1" vertex="1">
          <mxGeometry x="725" y="3051.59" width="120" height="80" as="geometry" />
        </mxCell>
        <mxCell id="UF56KhOBGK7OnS81mWjl-112" value="guardianRelation" style="ellipse;whiteSpace=wrap;html=1;fillColor=#e8e8e8;" parent="1" vertex="1">
          <mxGeometry x="935" y="3111.59" width="120" height="80" as="geometry" />
        </mxCell>
        <mxCell id="UF56KhOBGK7OnS81mWjl-113" value="corresAddress" style="ellipse;whiteSpace=wrap;html=1;fillColor=#e8e8e8;" parent="1" vertex="1">
          <mxGeometry x="965" y="1931.59" width="100" height="60" as="geometry" />
        </mxCell>
        <mxCell id="UF56KhOBGK7OnS81mWjl-114" value="guardianName" style="ellipse;whiteSpace=wrap;html=1;fillColor=#e8e8e8;" parent="1" vertex="1">
          <mxGeometry x="865" y="1961.59" width="90" height="60" as="geometry" />
        </mxCell>
        <mxCell id="UF56KhOBGK7OnS81mWjl-115" value="egycontactno" style="ellipse;whiteSpace=wrap;html=1;fillColor=#e8e8e8;" parent="1" vertex="1">
          <mxGeometry x="815" y="3131.59" width="120" height="80" as="geometry" />
        </mxCell>
        <mxCell id="UF56KhOBGK7OnS81mWjl-116" value="guardianContactno" style="ellipse;whiteSpace=wrap;html=1;fillColor=#e8e8e8;" parent="1" vertex="1">
          <mxGeometry x="1035" y="3051.59" width="110" height="70" as="geometry" />
        </mxCell>
        <mxCell id="UF56KhOBGK7OnS81mWjl-117" value="corresAddress" style="ellipse;whiteSpace=wrap;html=1;fillColor=#e8e8e8;" parent="1" vertex="1">
          <mxGeometry x="1075" y="1891.59" width="100" height="60" as="geometry" />
        </mxCell>
        <mxCell id="UF56KhOBGK7OnS81mWjl-118" value="corresState" style="ellipse;whiteSpace=wrap;html=1;fillColor=#e8e8e8;" parent="1" vertex="1">
          <mxGeometry x="1185" y="1931.59" width="100" height="60" as="geometry" />
        </mxCell>
        <mxCell id="UF56KhOBGK7OnS81mWjl-119" value="pmnatetState" style="ellipse;whiteSpace=wrap;html=1;fillColor=#e8e8e8;" parent="1" vertex="1">
          <mxGeometry x="1285" y="1961.59" width="100" height="60" as="geometry" />
        </mxCell>
        <mxCell id="UF56KhOBGK7OnS81mWjl-121" value="pmntAddress" style="ellipse;whiteSpace=wrap;html=1;fillColor=#e8e8e8;" parent="1" vertex="1">
          <mxGeometry x="1315" y="2031.59" width="100" height="60" as="geometry" />
        </mxCell>
        <mxCell id="UF56KhOBGK7OnS81mWjl-122" value="corresPincode" style="ellipse;whiteSpace=wrap;html=1;fillColor=#e8e8e8;" parent="1" vertex="1">
          <mxGeometry x="1105" y="2871.59" width="110" height="70" as="geometry" />
        </mxCell>
        <mxCell id="UF56KhOBGK7OnS81mWjl-123" value="pmntCity" style="ellipse;whiteSpace=wrap;html=1;fillColor=#e8e8e8;" parent="1" vertex="1">
          <mxGeometry x="1065" y="2961.59" width="110" height="70" as="geometry" />
        </mxCell>
        <mxCell id="UF56KhOBGK7OnS81mWjl-124" value="Posting Date" style="ellipse;whiteSpace=wrap;html=1;fillColor=#e8e8e8;" parent="1" vertex="1">
          <mxGeometry x="1355" y="2101.59" width="100" height="60" as="geometry" />
        </mxCell>
        <mxCell id="UF56KhOBGK7OnS81mWjl-125" value="updationDate" style="ellipse;whiteSpace=wrap;html=1;fillColor=#e8e8e8;" parent="1" vertex="1">
          <mxGeometry x="1415" y="2181.59" width="100" height="60" as="geometry" />
        </mxCell>
        <mxCell id="UF56KhOBGK7OnS81mWjl-127" value="" style="endArrow=none;html=1;rounded=0;exitX=0.25;exitY=0;exitDx=0;exitDy=0;entryX=0.242;entryY=0.942;entryDx=0;entryDy=0;entryPerimeter=0;" parent="1" source="UF56KhOBGK7OnS81mWjl-63" target="UF56KhOBGK7OnS81mWjl-114" edge="1">
          <mxGeometry width="50" height="50" relative="1" as="geometry">
            <mxPoint x="1060" y="2521.59" as="sourcePoint" />
            <mxPoint x="1109" y="2261.59" as="targetPoint" />
          </mxGeometry>
        </mxCell>
        <mxCell id="UF56KhOBGK7OnS81mWjl-128" value="" style="endArrow=none;html=1;rounded=0;entryX=0.225;entryY=0.923;entryDx=0;entryDy=0;exitX=0.311;exitY=0.023;exitDx=0;exitDy=0;exitPerimeter=0;entryPerimeter=0;" parent="1" source="UF56KhOBGK7OnS81mWjl-63" target="UF56KhOBGK7OnS81mWjl-113" edge="1">
          <mxGeometry width="50" height="50" relative="1" as="geometry">
            <mxPoint x="1055" y="2511.59" as="sourcePoint" />
            <mxPoint x="1263.5" y="2288.59" as="targetPoint" />
          </mxGeometry>
        </mxCell>
        <mxCell id="UF56KhOBGK7OnS81mWjl-129" value="" style="endArrow=none;html=1;rounded=0;exitX=0.341;exitY=0.022;exitDx=0;exitDy=0;entryX=0;entryY=1;entryDx=0;entryDy=0;exitPerimeter=0;" parent="1" source="UF56KhOBGK7OnS81mWjl-63" target="UF56KhOBGK7OnS81mWjl-117" edge="1">
          <mxGeometry width="50" height="50" relative="1" as="geometry">
            <mxPoint x="1070" y="2531.59" as="sourcePoint" />
            <mxPoint x="1197" y="2278.59" as="targetPoint" />
          </mxGeometry>
        </mxCell>
        <mxCell id="UF56KhOBGK7OnS81mWjl-130" value="" style="endArrow=none;html=1;rounded=0;exitX=0.1;exitY=0.023;exitDx=0;exitDy=0;entryX=0.5;entryY=1;entryDx=0;entryDy=0;exitPerimeter=0;" parent="1" source="UF56KhOBGK7OnS81mWjl-63" target="UF56KhOBGK7OnS81mWjl-107" edge="1">
          <mxGeometry width="50" height="50" relative="1" as="geometry">
            <mxPoint x="1080" y="2541.59" as="sourcePoint" />
            <mxPoint x="995" y="2241.59" as="targetPoint" />
          </mxGeometry>
        </mxCell>
        <mxCell id="UF56KhOBGK7OnS81mWjl-131" value="" style="endArrow=none;html=1;rounded=0;exitX=0.333;exitY=0;exitDx=0;exitDy=0;entryX=0.041;entryY=0.709;entryDx=0;entryDy=0;entryPerimeter=0;exitPerimeter=0;" parent="1" source="UF56KhOBGK7OnS81mWjl-63" target="UF56KhOBGK7OnS81mWjl-118" edge="1">
          <mxGeometry width="50" height="50" relative="1" as="geometry">
            <mxPoint x="1090" y="2551.59" as="sourcePoint" />
            <mxPoint x="1217" y="2298.59" as="targetPoint" />
          </mxGeometry>
        </mxCell>
        <mxCell id="UF56KhOBGK7OnS81mWjl-132" value="" style="endArrow=none;html=1;rounded=0;exitX=0.38;exitY=-0.021;exitDx=0;exitDy=0;entryX=0;entryY=0.5;entryDx=0;entryDy=0;exitPerimeter=0;" parent="1" source="UF56KhOBGK7OnS81mWjl-63" target="UF56KhOBGK7OnS81mWjl-119" edge="1">
          <mxGeometry width="50" height="50" relative="1" as="geometry">
            <mxPoint x="1135" y="2531.59" as="sourcePoint" />
            <mxPoint x="1439" y="2364.59" as="targetPoint" />
          </mxGeometry>
        </mxCell>
        <mxCell id="UF56KhOBGK7OnS81mWjl-133" value="" style="endArrow=none;html=1;rounded=0;entryX=0;entryY=0.5;entryDx=0;entryDy=0;exitX=0.5;exitY=0;exitDx=0;exitDy=0;" parent="1" source="UF56KhOBGK7OnS81mWjl-63" target="UF56KhOBGK7OnS81mWjl-124" edge="1">
          <mxGeometry width="50" height="50" relative="1" as="geometry">
            <mxPoint x="1125" y="2561.59" as="sourcePoint" />
            <mxPoint x="1449" y="2374.59" as="targetPoint" />
          </mxGeometry>
        </mxCell>
        <mxCell id="UF56KhOBGK7OnS81mWjl-134" value="" style="endArrow=none;html=1;rounded=0;exitX=0.5;exitY=0;exitDx=0;exitDy=0;entryX=0;entryY=0.5;entryDx=0;entryDy=0;" parent="1" source="UF56KhOBGK7OnS81mWjl-63" target="UF56KhOBGK7OnS81mWjl-121" edge="1">
          <mxGeometry width="50" height="50" relative="1" as="geometry">
            <mxPoint x="1155" y="2551.59" as="sourcePoint" />
            <mxPoint x="1459" y="2384.59" as="targetPoint" />
          </mxGeometry>
        </mxCell>
        <mxCell id="UF56KhOBGK7OnS81mWjl-135" value="" style="endArrow=none;html=1;rounded=0;entryX=0;entryY=0.5;entryDx=0;entryDy=0;exitX=0.477;exitY=0.007;exitDx=0;exitDy=0;exitPerimeter=0;" parent="1" source="UF56KhOBGK7OnS81mWjl-63" target="UF56KhOBGK7OnS81mWjl-125" edge="1">
          <mxGeometry width="50" height="50" relative="1" as="geometry">
            <mxPoint x="1135" y="2566.59" as="sourcePoint" />
            <mxPoint x="1535" y="2551.59" as="targetPoint" />
          </mxGeometry>
        </mxCell>
        <mxCell id="UF56KhOBGK7OnS81mWjl-136" value="" style="endArrow=none;html=1;rounded=0;entryX=0.374;entryY=-0.027;entryDx=0;entryDy=0;exitX=0.059;exitY=1.001;exitDx=0;exitDy=0;exitPerimeter=0;entryPerimeter=0;" parent="1" source="UF56KhOBGK7OnS81mWjl-63" target="UF56KhOBGK7OnS81mWjl-111" edge="1">
          <mxGeometry width="50" height="50" relative="1" as="geometry">
            <mxPoint x="985" y="2571.59" as="sourcePoint" />
            <mxPoint x="895" y="2831.59" as="targetPoint" />
          </mxGeometry>
        </mxCell>
        <mxCell id="UF56KhOBGK7OnS81mWjl-137" value="" style="endArrow=none;html=1;rounded=0;entryX=0.307;entryY=0.017;entryDx=0;entryDy=0;exitX=0.147;exitY=1.001;exitDx=0;exitDy=0;exitPerimeter=0;entryPerimeter=0;" parent="1" source="UF56KhOBGK7OnS81mWjl-63" target="UF56KhOBGK7OnS81mWjl-115" edge="1">
          <mxGeometry width="50" height="50" relative="1" as="geometry">
            <mxPoint x="994" y="2611.59" as="sourcePoint" />
            <mxPoint x="1010" y="2839.59" as="targetPoint" />
          </mxGeometry>
        </mxCell>
        <mxCell id="UF56KhOBGK7OnS81mWjl-138" value="" style="endArrow=none;html=1;rounded=0;entryX=0.244;entryY=0.06;entryDx=0;entryDy=0;exitX=0.316;exitY=1.001;exitDx=0;exitDy=0;exitPerimeter=0;entryPerimeter=0;" parent="1" source="UF56KhOBGK7OnS81mWjl-63" target="UF56KhOBGK7OnS81mWjl-112" edge="1">
          <mxGeometry width="50" height="50" relative="1" as="geometry">
            <mxPoint x="1004" y="2621.59" as="sourcePoint" />
            <mxPoint x="1020" y="2849.59" as="targetPoint" />
          </mxGeometry>
        </mxCell>
        <mxCell id="UF56KhOBGK7OnS81mWjl-139" value="" style="endArrow=none;html=1;rounded=0;entryX=0.365;entryY=0.017;entryDx=0;entryDy=0;exitX=0.329;exitY=1.001;exitDx=0;exitDy=0;exitPerimeter=0;entryPerimeter=0;" parent="1" source="UF56KhOBGK7OnS81mWjl-63" target="UF56KhOBGK7OnS81mWjl-123" edge="1">
          <mxGeometry width="50" height="50" relative="1" as="geometry">
            <mxPoint x="1032" y="2611.59" as="sourcePoint" />
            <mxPoint x="1244" y="2856.59" as="targetPoint" />
          </mxGeometry>
        </mxCell>
        <mxCell id="UF56KhOBGK7OnS81mWjl-140" value="" style="endArrow=none;html=1;rounded=0;entryX=0.267;entryY=0.053;entryDx=0;entryDy=0;exitX=0.342;exitY=1.001;exitDx=0;exitDy=0;exitPerimeter=0;entryPerimeter=0;" parent="1" source="UF56KhOBGK7OnS81mWjl-63" target="UF56KhOBGK7OnS81mWjl-116" edge="1">
          <mxGeometry width="50" height="50" relative="1" as="geometry">
            <mxPoint x="1042" y="2621.59" as="sourcePoint" />
            <mxPoint x="1254" y="2866.59" as="targetPoint" />
          </mxGeometry>
        </mxCell>
        <mxCell id="UF56KhOBGK7OnS81mWjl-141" value="" style="endArrow=none;html=1;rounded=0;entryX=0.387;entryY=0.008;entryDx=0;entryDy=0;exitX=0.423;exitY=1.022;exitDx=0;exitDy=0;exitPerimeter=0;entryPerimeter=0;" parent="1" source="UF56KhOBGK7OnS81mWjl-63" target="UF56KhOBGK7OnS81mWjl-122" edge="1">
          <mxGeometry width="50" height="50" relative="1" as="geometry">
            <mxPoint x="1034" y="2611.59" as="sourcePoint" />
            <mxPoint x="1485" y="2817.59" as="targetPoint" />
          </mxGeometry>
        </mxCell>
        <mxCell id="UF56KhOBGK7OnS81mWjl-2" value="Admin&lt;br&gt;" style="rounded=0;whiteSpace=wrap;html=1;flipH=0;flipV=0;direction=east;" parent="1" vertex="1">
          <mxGeometry x="940" y="600" width="150" height="90" as="geometry" />
        </mxCell>
        <mxCell id="UF56KhOBGK7OnS81mWjl-13" value="Username" style="ellipse;whiteSpace=wrap;html=1;fillColor=#e8e8e8;flipH=0;flipV=1;direction=east;" parent="1" vertex="1">
          <mxGeometry x="720" y="480" width="120" height="80" as="geometry" />
        </mxCell>
        <mxCell id="UF56KhOBGK7OnS81mWjl-14" value="&lt;u&gt;ID&lt;/u&gt;" style="ellipse;whiteSpace=wrap;html=1;fillColor=#e8e8e8;strokeColor=#36393d;flipH=0;flipV=1;direction=east;" parent="1" vertex="1">
          <mxGeometry x="670" y="560" width="120" height="80" as="geometry" />
        </mxCell>
        <mxCell id="UF56KhOBGK7OnS81mWjl-20" value="Email&lt;br&gt;" style="ellipse;whiteSpace=wrap;html=1;fillColor=#e8e8e8;flipH=0;flipV=1;direction=east;" parent="1" vertex="1">
          <mxGeometry x="810" y="420" width="120" height="80" as="geometry" />
        </mxCell>
        <mxCell id="UF56KhOBGK7OnS81mWjl-21" value="Updation date" style="ellipse;whiteSpace=wrap;html=1;fillColor=#e8e8e8;flipH=0;flipV=1;direction=east;" parent="1" vertex="1">
          <mxGeometry x="770" y="810" width="120" height="80" as="geometry" />
        </mxCell>
        <mxCell id="UF56KhOBGK7OnS81mWjl-22" value="Password" style="ellipse;whiteSpace=wrap;html=1;fillColor=#e8e8e8;flipH=0;flipV=1;direction=east;" parent="1" vertex="1">
          <mxGeometry x="700" y="740" width="120" height="80" as="geometry" />
        </mxCell>
        <mxCell id="UF56KhOBGK7OnS81mWjl-23" value="Reg date" style="ellipse;whiteSpace=wrap;html=1;fillColor=#e8e8e8;flipH=0;flipV=1;direction=east;" parent="1" vertex="1">
          <mxGeometry x="680" y="650" width="120" height="80" as="geometry" />
        </mxCell>
        <mxCell id="UF56KhOBGK7OnS81mWjl-25" value="" style="endArrow=none;html=1;rounded=0;exitX=0;exitY=0.5;exitDx=0;exitDy=0;" parent="1" source="UF56KhOBGK7OnS81mWjl-2" target="UF56KhOBGK7OnS81mWjl-20" edge="1">
          <mxGeometry width="50" height="50" relative="1" as="geometry">
            <mxPoint x="940" y="503.7850590930334" as="sourcePoint" />
            <mxPoint x="1150" y="613.7850590930334" as="targetPoint" />
          </mxGeometry>
        </mxCell>
        <mxCell id="UF56KhOBGK7OnS81mWjl-27" value="" style="endArrow=none;html=1;rounded=0;entryX=0.5;entryY=1;entryDx=0;entryDy=0;exitX=0;exitY=0.5;exitDx=0;exitDy=0;" parent="1" source="UF56KhOBGK7OnS81mWjl-2" target="UF56KhOBGK7OnS81mWjl-13" edge="1">
          <mxGeometry width="50" height="50" relative="1" as="geometry">
            <mxPoint x="920" y="560" as="sourcePoint" />
            <mxPoint x="1030" y="665" as="targetPoint" />
          </mxGeometry>
        </mxCell>
        <mxCell id="UF56KhOBGK7OnS81mWjl-28" value="" style="endArrow=none;html=1;rounded=0;entryX=0;entryY=0.5;entryDx=0;entryDy=0;" parent="1" source="UF56KhOBGK7OnS81mWjl-14" target="UF56KhOBGK7OnS81mWjl-2" edge="1">
          <mxGeometry width="50" height="50" relative="1" as="geometry">
            <mxPoint x="1090" y="537.2403672165251" as="sourcePoint" />
            <mxPoint x="950" y="627.2403672165251" as="targetPoint" />
          </mxGeometry>
        </mxCell>
        <mxCell id="UF56KhOBGK7OnS81mWjl-29" value="" style="endArrow=none;html=1;rounded=0;exitX=0.931;exitY=0.771;exitDx=0;exitDy=0;entryX=0;entryY=0.5;entryDx=0;entryDy=0;exitPerimeter=0;" parent="1" source="UF56KhOBGK7OnS81mWjl-23" target="UF56KhOBGK7OnS81mWjl-2" edge="1">
          <mxGeometry width="50" height="50" relative="1" as="geometry">
            <mxPoint x="693.119999999999" y="720.0400000000004" as="sourcePoint" />
            <mxPoint x="743.119999999999" y="770.0400000000004" as="targetPoint" />
          </mxGeometry>
        </mxCell>
        <mxCell id="UF56KhOBGK7OnS81mWjl-30" value="" style="endArrow=none;html=1;rounded=0;entryX=0;entryY=0.5;entryDx=0;entryDy=0;" parent="1" source="UF56KhOBGK7OnS81mWjl-22" target="UF56KhOBGK7OnS81mWjl-2" edge="1">
          <mxGeometry width="50" height="50" relative="1" as="geometry">
            <mxPoint x="900" y="665.1036272526535" as="sourcePoint" />
            <mxPoint x="950" y="765.1036272526535" as="targetPoint" />
          </mxGeometry>
        </mxCell>
        <mxCell id="UF56KhOBGK7OnS81mWjl-31" value="" style="endArrow=none;html=1;rounded=0;entryX=0.5;entryY=0;entryDx=0;entryDy=0;exitX=0;exitY=0.5;exitDx=0;exitDy=0;" parent="1" source="UF56KhOBGK7OnS81mWjl-2" target="UF56KhOBGK7OnS81mWjl-21" edge="1">
          <mxGeometry width="50" height="50" relative="1" as="geometry">
            <mxPoint x="950" y="825" as="sourcePoint" />
            <mxPoint x="1140" y="785" as="targetPoint" />
          </mxGeometry>
        </mxCell>
        <mxCell id="UF56KhOBGK7OnS81mWjl-146" value="Rooms" style="rounded=0;whiteSpace=wrap;html=1;flipH=0;flipV=1;direction=west;" parent="1" vertex="1">
          <mxGeometry x="381.25" y="3581.59" width="150" height="90" as="geometry" />
        </mxCell>
        <mxCell id="UF56KhOBGK7OnS81mWjl-147" value="&lt;u&gt;id&lt;/u&gt;" style="ellipse;whiteSpace=wrap;html=1;fillColor=#e8e8e8;flipH=0;flipV=1;direction=west;" parent="1" vertex="1">
          <mxGeometry x="541.25" y="3761.59" width="120" height="80" as="geometry" />
        </mxCell>
        <mxCell id="UF56KhOBGK7OnS81mWjl-148" value="fees" style="ellipse;whiteSpace=wrap;html=1;fillColor=#e8e8e8;strokeColor=#36393d;flipH=0;flipV=1;direction=west;" parent="1" vertex="1">
          <mxGeometry x="828.75" y="3561.59" width="120" height="80" as="geometry" />
        </mxCell>
        <mxCell id="UF56KhOBGK7OnS81mWjl-149" value="seater" style="ellipse;whiteSpace=wrap;html=1;fillColor=#e8e8e8;flipH=0;flipV=1;direction=west;" parent="1" vertex="1">
          <mxGeometry x="614.25" y="3361.59" width="120" height="80" as="geometry" />
        </mxCell>
        <mxCell id="UF56KhOBGK7OnS81mWjl-150" value="Updation date" style="ellipse;whiteSpace=wrap;html=1;fillColor=#e8e8e8;flipH=0;flipV=1;direction=west;" parent="1" vertex="1">
          <mxGeometry x="469.25" y="3321.59" width="120" height="80" as="geometry" />
        </mxCell>
        <mxCell id="UF56KhOBGK7OnS81mWjl-151" value="room_no" style="ellipse;whiteSpace=wrap;html=1;fillColor=#e8e8e8;flipH=0;flipV=1;direction=west;" parent="1" vertex="1">
          <mxGeometry x="686.25" y="3471.59" width="120" height="80" as="geometry" />
        </mxCell>
        <mxCell id="UF56KhOBGK7OnS81mWjl-152" value="posting_date" style="ellipse;whiteSpace=wrap;html=1;fillColor=#e8e8e8;flipH=0;flipV=1;direction=west;" parent="1" vertex="1">
          <mxGeometry x="759.25" y="3671.59" width="120" height="80" as="geometry" />
        </mxCell>
        <mxCell id="UF56KhOBGK7OnS81mWjl-153" value="" style="endArrow=none;html=1;rounded=0;exitX=0;exitY=0.5;exitDx=0;exitDy=0;" parent="1" source="UF56KhOBGK7OnS81mWjl-146" target="UF56KhOBGK7OnS81mWjl-149" edge="1">
          <mxGeometry width="50" height="50" relative="1" as="geometry">
            <mxPoint x="361.25" y="3569.683022621532" as="sourcePoint" />
            <mxPoint x="571.25" y="3459.683022621532" as="targetPoint" />
          </mxGeometry>
        </mxCell>
        <mxCell id="UF56KhOBGK7OnS81mWjl-154" value="" style="endArrow=none;html=1;rounded=0;entryX=0.5;entryY=1;entryDx=0;entryDy=0;exitX=0;exitY=0.5;exitDx=0;exitDy=0;" parent="1" source="UF56KhOBGK7OnS81mWjl-146" target="UF56KhOBGK7OnS81mWjl-147" edge="1">
          <mxGeometry width="50" height="50" relative="1" as="geometry">
            <mxPoint x="341.25" y="3836.59" as="sourcePoint" />
            <mxPoint x="451.25" y="3731.59" as="targetPoint" />
          </mxGeometry>
        </mxCell>
        <mxCell id="UF56KhOBGK7OnS81mWjl-155" value="" style="endArrow=none;html=1;rounded=0;entryX=0;entryY=0.5;entryDx=0;entryDy=0;exitX=1;exitY=0.5;exitDx=0;exitDy=0;" parent="1" source="UF56KhOBGK7OnS81mWjl-148" target="UF56KhOBGK7OnS81mWjl-146" edge="1">
          <mxGeometry width="50" height="50" relative="1" as="geometry">
            <mxPoint x="831.3560108959114" y="3613.9667455993686" as="sourcePoint" />
            <mxPoint x="371.25" y="3621.653494187342" as="targetPoint" />
          </mxGeometry>
        </mxCell>
        <mxCell id="UF56KhOBGK7OnS81mWjl-156" value="" style="endArrow=none;html=1;rounded=0;exitX=0.931;exitY=0.771;exitDx=0;exitDy=0;entryX=0;entryY=0.5;entryDx=0;entryDy=0;exitPerimeter=0;" parent="1" source="UF56KhOBGK7OnS81mWjl-152" target="UF56KhOBGK7OnS81mWjl-146" edge="1">
          <mxGeometry width="50" height="50" relative="1" as="geometry">
            <mxPoint x="114.36999999999807" y="3561.5100000000007" as="sourcePoint" />
            <mxPoint x="164.36999999999807" y="3511.5100000000007" as="targetPoint" />
          </mxGeometry>
        </mxCell>
        <mxCell id="UF56KhOBGK7OnS81mWjl-157" value="" style="endArrow=none;html=1;rounded=0;entryX=0;entryY=0.5;entryDx=0;entryDy=0;" parent="1" source="UF56KhOBGK7OnS81mWjl-151" target="UF56KhOBGK7OnS81mWjl-146" edge="1">
          <mxGeometry width="50" height="50" relative="1" as="geometry">
            <mxPoint x="321.25" y="3506.446742068738" as="sourcePoint" />
            <mxPoint x="371.25" y="3406.446742068738" as="targetPoint" />
          </mxGeometry>
        </mxCell>
        <mxCell id="UF56KhOBGK7OnS81mWjl-158" value="" style="endArrow=none;html=1;rounded=0;entryX=0.5;entryY=0;entryDx=0;entryDy=0;exitX=0;exitY=0.5;exitDx=0;exitDy=0;" parent="1" source="UF56KhOBGK7OnS81mWjl-146" target="UF56KhOBGK7OnS81mWjl-150" edge="1">
          <mxGeometry width="50" height="50" relative="1" as="geometry">
            <mxPoint x="371.25" y="3211.5899999999992" as="sourcePoint" />
            <mxPoint x="561.25" y="3251.5899999999992" as="targetPoint" />
          </mxGeometry>
        </mxCell>
        <mxCell id="UF56KhOBGK7OnS81mWjl-170" value="States" style="rounded=0;whiteSpace=wrap;html=1;flipH=0;flipV=0;direction=west;" parent="1" vertex="1">
          <mxGeometry x="1255" y="1751.59" width="150" height="90" as="geometry" />
        </mxCell>
        <mxCell id="UF56KhOBGK7OnS81mWjl-173" value="State" style="ellipse;whiteSpace=wrap;html=1;fillColor=#e8e8e8;flipH=0;flipV=0;direction=west;" parent="1" vertex="1">
          <mxGeometry x="1685" y="1751.59" width="120" height="80" as="geometry" />
        </mxCell>
        <mxCell id="UF56KhOBGK7OnS81mWjl-174" value="&lt;u&gt;id&lt;/u&gt;" style="ellipse;whiteSpace=wrap;html=1;fillColor=#e8e8e8;flipH=0;flipV=0;direction=west;" parent="1" vertex="1">
          <mxGeometry x="1665" y="1641.59" width="120" height="80" as="geometry" />
        </mxCell>
        <mxCell id="UF56KhOBGK7OnS81mWjl-176" value="" style="endArrow=none;html=1;rounded=0;exitX=0;exitY=0.5;exitDx=0;exitDy=0;" parent="1" source="UF56KhOBGK7OnS81mWjl-170" target="UF56KhOBGK7OnS81mWjl-173" edge="1">
          <mxGeometry width="50" height="50" relative="1" as="geometry">
            <mxPoint x="1235" y="1665.3750590930333" as="sourcePoint" />
            <mxPoint x="1445" y="1775.3750590930333" as="targetPoint" />
          </mxGeometry>
        </mxCell>
        <mxCell id="UF56KhOBGK7OnS81mWjl-180" value="" style="endArrow=none;html=1;rounded=0;entryX=0;entryY=0.5;entryDx=0;entryDy=0;" parent="1" source="UF56KhOBGK7OnS81mWjl-174" target="UF56KhOBGK7OnS81mWjl-170" edge="1">
          <mxGeometry width="50" height="50" relative="1" as="geometry">
            <mxPoint x="1195" y="1826.6936272526534" as="sourcePoint" />
            <mxPoint x="1245" y="1926.6936272526534" as="targetPoint" />
          </mxGeometry>
        </mxCell>
        <mxCell id="UF56KhOBGK7OnS81mWjl-182" value="Userlog" style="rounded=0;whiteSpace=wrap;html=1;flipH=0;flipV=0;direction=west;" parent="1" vertex="1">
          <mxGeometry x="-60" y="1019.9999999999999" width="150" height="90" as="geometry" />
        </mxCell>
        <mxCell id="UF56KhOBGK7OnS81mWjl-183" value="country" style="ellipse;whiteSpace=wrap;html=1;fillColor=#e8e8e8;flipH=0;flipV=0;direction=west;" parent="1" vertex="1">
          <mxGeometry x="320" y="1190" width="120" height="80" as="geometry" />
        </mxCell>
        <mxCell id="UF56KhOBGK7OnS81mWjl-184" value="&lt;u&gt;id&lt;/u&gt;" style="ellipse;whiteSpace=wrap;html=1;fillColor=#e8e8e8;strokeColor=#36393d;flipH=0;flipV=0;direction=west;" parent="1" vertex="1">
          <mxGeometry x="390" y="999.9999999999999" width="120" height="80" as="geometry" />
        </mxCell>
        <mxCell id="UF56KhOBGK7OnS81mWjl-185" value="userEmail" style="ellipse;whiteSpace=wrap;html=1;fillColor=#e8e8e8;flipH=0;flipV=0;direction=west;" parent="1" vertex="1">
          <mxGeometry x="320" y="790" width="120" height="80" as="geometry" />
        </mxCell>
        <mxCell id="UF56KhOBGK7OnS81mWjl-186" value="userIp" style="ellipse;whiteSpace=wrap;html=1;fillColor=#e8e8e8;flipH=0;flipV=0;direction=west;" parent="1" vertex="1">
          <mxGeometry x="190" y="750" width="120" height="80" as="geometry" />
        </mxCell>
        <mxCell id="UF56KhOBGK7OnS81mWjl-187" value="userId" style="ellipse;whiteSpace=wrap;html=1;fillColor=#e8e8e8;flipH=0;flipV=0;direction=west;" parent="1" vertex="1">
          <mxGeometry x="350" y="900" width="120" height="80" as="geometry" />
        </mxCell>
        <mxCell id="UF56KhOBGK7OnS81mWjl-188" value="city" style="ellipse;whiteSpace=wrap;html=1;fillColor=#e8e8e8;flipH=0;flipV=0;direction=west;" parent="1" vertex="1">
          <mxGeometry x="370" y="1100" width="120" height="80" as="geometry" />
        </mxCell>
        <mxCell id="UF56KhOBGK7OnS81mWjl-189" value="" style="endArrow=none;html=1;rounded=0;exitX=0;exitY=0.5;exitDx=0;exitDy=0;" parent="1" source="UF56KhOBGK7OnS81mWjl-182" target="UF56KhOBGK7OnS81mWjl-185" edge="1">
          <mxGeometry width="50" height="50" relative="1" as="geometry">
            <mxPoint x="-80" y="923.7850590930334" as="sourcePoint" />
            <mxPoint x="130" y="1033.7850590930334" as="targetPoint" />
          </mxGeometry>
        </mxCell>
        <mxCell id="UF56KhOBGK7OnS81mWjl-190" value="" style="endArrow=none;html=1;rounded=0;entryX=0.5;entryY=1;entryDx=0;entryDy=0;exitX=0;exitY=0.5;exitDx=0;exitDy=0;" parent="1" source="UF56KhOBGK7OnS81mWjl-182" target="UF56KhOBGK7OnS81mWjl-183" edge="1">
          <mxGeometry width="50" height="50" relative="1" as="geometry">
            <mxPoint x="-100" y="979.9999999999999" as="sourcePoint" />
            <mxPoint x="10" y="1085" as="targetPoint" />
          </mxGeometry>
        </mxCell>
        <mxCell id="UF56KhOBGK7OnS81mWjl-191" value="" style="endArrow=none;html=1;rounded=0;entryX=0;entryY=0.5;entryDx=0;entryDy=0;" parent="1" source="UF56KhOBGK7OnS81mWjl-184" target="UF56KhOBGK7OnS81mWjl-182" edge="1">
          <mxGeometry width="50" height="50" relative="1" as="geometry">
            <mxPoint x="70" y="957.2403672165251" as="sourcePoint" />
            <mxPoint x="-70" y="1047.240367216525" as="targetPoint" />
          </mxGeometry>
        </mxCell>
        <mxCell id="UF56KhOBGK7OnS81mWjl-192" value="" style="endArrow=none;html=1;rounded=0;exitX=0.931;exitY=0.771;exitDx=0;exitDy=0;entryX=0;entryY=0.5;entryDx=0;entryDy=0;exitPerimeter=0;" parent="1" source="UF56KhOBGK7OnS81mWjl-188" target="UF56KhOBGK7OnS81mWjl-182" edge="1">
          <mxGeometry width="50" height="50" relative="1" as="geometry">
            <mxPoint x="-430.3200000000015" y="1140.0400000000004" as="sourcePoint" />
            <mxPoint x="-380.3200000000015" y="1190.0400000000004" as="targetPoint" />
          </mxGeometry>
        </mxCell>
        <mxCell id="UF56KhOBGK7OnS81mWjl-193" value="" style="endArrow=none;html=1;rounded=0;entryX=0;entryY=0.5;entryDx=0;entryDy=0;" parent="1" source="UF56KhOBGK7OnS81mWjl-187" target="UF56KhOBGK7OnS81mWjl-182" edge="1">
          <mxGeometry width="50" height="50" relative="1" as="geometry">
            <mxPoint x="-120" y="1085.1036272526535" as="sourcePoint" />
            <mxPoint x="-70" y="1185.1036272526535" as="targetPoint" />
          </mxGeometry>
        </mxCell>
        <mxCell id="UF56KhOBGK7OnS81mWjl-194" value="" style="endArrow=none;html=1;rounded=0;entryX=0.5;entryY=0;entryDx=0;entryDy=0;exitX=0;exitY=0.5;exitDx=0;exitDy=0;" parent="1" source="UF56KhOBGK7OnS81mWjl-182" target="UF56KhOBGK7OnS81mWjl-186" edge="1">
          <mxGeometry width="50" height="50" relative="1" as="geometry">
            <mxPoint x="-70" y="1245" as="sourcePoint" />
            <mxPoint x="120" y="1205" as="targetPoint" />
          </mxGeometry>
        </mxCell>
        <mxCell id="UF56KhOBGK7OnS81mWjl-195" value="loginTime" style="ellipse;whiteSpace=wrap;html=1;fillColor=#e8e8e8;flipH=0;flipV=0;direction=west;" parent="1" vertex="1">
          <mxGeometry x="220" y="1250" width="120" height="80" as="geometry" />
        </mxCell>
        <mxCell id="UF56KhOBGK7OnS81mWjl-196" value="" style="endArrow=none;html=1;rounded=0;entryX=0;entryY=0.5;entryDx=0;entryDy=0;exitX=0.942;exitY=0.778;exitDx=0;exitDy=0;exitPerimeter=0;" parent="1" source="UF56KhOBGK7OnS81mWjl-195" target="UF56KhOBGK7OnS81mWjl-182" edge="1">
          <mxGeometry width="50" height="50" relative="1" as="geometry">
            <mxPoint x="230" y="1270" as="sourcePoint" />
            <mxPoint x="280" y="1220" as="targetPoint" />
          </mxGeometry>
        </mxCell>
        <mxCell id="fS7WWm2KH9zvgmKKYU2g-3" value="Userregistration" style="rounded=0;whiteSpace=wrap;html=1;" parent="1" vertex="1">
          <mxGeometry x="-310" y="2051.59" width="150" height="90" as="geometry" />
        </mxCell>
        <mxCell id="fS7WWm2KH9zvgmKKYU2g-16" value="passUdateDate" style="ellipse;whiteSpace=wrap;html=1;fillColor=#e8e8e8;" parent="1" vertex="1">
          <mxGeometry x="-830" y="1671.59" width="120" height="80" as="geometry" />
        </mxCell>
        <mxCell id="fS7WWm2KH9zvgmKKYU2g-19" value="" style="endArrow=none;html=1;rounded=0;entryX=0.5;entryY=1;entryDx=0;entryDy=0;exitX=0;exitY=0.5;exitDx=0;exitDy=0;" parent="1" source="fS7WWm2KH9zvgmKKYU2g-3" target="fS7WWm2KH9zvgmKKYU2g-16" edge="1">
          <mxGeometry width="50" height="50" relative="1" as="geometry">
            <mxPoint x="-510" y="2596.59" as="sourcePoint" />
            <mxPoint x="-420" y="2491.59" as="targetPoint" />
          </mxGeometry>
        </mxCell>
        <mxCell id="fS7WWm2KH9zvgmKKYU2g-24" value="updationDate" style="ellipse;whiteSpace=wrap;html=1;fillColor=#e8e8e8;" parent="1" vertex="1">
          <mxGeometry x="-740" y="1601.59" width="100" height="60" as="geometry" />
        </mxCell>
        <mxCell id="fS7WWm2KH9zvgmKKYU2g-25" value="regDate" style="ellipse;whiteSpace=wrap;html=1;fillColor=#e8e8e8;" parent="1" vertex="1">
          <mxGeometry x="-660" y="1541.59" width="100" height="60" as="geometry" />
        </mxCell>
        <mxCell id="fS7WWm2KH9zvgmKKYU2g-26" value="" style="endArrow=none;html=1;rounded=0;entryX=0.598;entryY=1.001;entryDx=0;entryDy=0;entryPerimeter=0;exitX=0;exitY=0.25;exitDx=0;exitDy=0;" parent="1" source="fS7WWm2KH9zvgmKKYU2g-3" target="fS7WWm2KH9zvgmKKYU2g-24" edge="1">
          <mxGeometry width="50" height="50" relative="1" as="geometry">
            <mxPoint x="-340" y="2071.59" as="sourcePoint" />
            <mxPoint x="-530" y="1851.59" as="targetPoint" />
          </mxGeometry>
        </mxCell>
        <mxCell id="fS7WWm2KH9zvgmKKYU2g-27" value="" style="endArrow=none;html=1;rounded=0;exitX=0.25;exitY=0;exitDx=0;exitDy=0;entryX=0.319;entryY=0.967;entryDx=0;entryDy=0;entryPerimeter=0;" parent="1" source="fS7WWm2KH9zvgmKKYU2g-3" target="fS7WWm2KH9zvgmKKYU2g-28" edge="1">
          <mxGeometry width="50" height="50" relative="1" as="geometry">
            <mxPoint x="-310" y="2021.59" as="sourcePoint" />
            <mxPoint x="-233.32476749845227" y="1767.5483277706733" as="targetPoint" />
          </mxGeometry>
        </mxCell>
        <mxCell id="fS7WWm2KH9zvgmKKYU2g-28" value="password" style="ellipse;whiteSpace=wrap;html=1;fillColor=#e8e8e8;" parent="1" vertex="1">
          <mxGeometry x="-570" y="1501.59" width="100" height="70" as="geometry" />
        </mxCell>
        <mxCell id="fS7WWm2KH9zvgmKKYU2g-31" value="contactNo" style="ellipse;whiteSpace=wrap;html=1;fillColor=#e8e8e8;" parent="1" vertex="1">
          <mxGeometry x="-350" y="1451.59" width="100" height="60" as="geometry" />
        </mxCell>
        <mxCell id="fS7WWm2KH9zvgmKKYU2g-32" value="email" style="ellipse;whiteSpace=wrap;html=1;fillColor=#e8e8e8;" parent="1" vertex="1">
          <mxGeometry x="-450" y="1481.59" width="90" height="60" as="geometry" />
        </mxCell>
        <mxCell id="fS7WWm2KH9zvgmKKYU2g-35" value="gender" style="ellipse;whiteSpace=wrap;html=1;fillColor=#e8e8e8;" parent="1" vertex="1">
          <mxGeometry x="-240" y="1411.59" width="100" height="60" as="geometry" />
        </mxCell>
        <mxCell id="fS7WWm2KH9zvgmKKYU2g-36" value="lastName" style="ellipse;whiteSpace=wrap;html=1;fillColor=#e8e8e8;" parent="1" vertex="1">
          <mxGeometry x="-130" y="1451.59" width="100" height="60" as="geometry" />
        </mxCell>
        <mxCell id="fS7WWm2KH9zvgmKKYU2g-37" value="middleName" style="ellipse;whiteSpace=wrap;html=1;fillColor=#e8e8e8;" parent="1" vertex="1">
          <mxGeometry x="-30" y="1481.59" width="100" height="60" as="geometry" />
        </mxCell>
        <mxCell id="fS7WWm2KH9zvgmKKYU2g-38" value="firstName" style="ellipse;whiteSpace=wrap;html=1;fillColor=#e8e8e8;" parent="1" vertex="1">
          <mxGeometry y="1551.59" width="100" height="60" as="geometry" />
        </mxCell>
        <mxCell id="fS7WWm2KH9zvgmKKYU2g-41" value="regNo" style="ellipse;whiteSpace=wrap;html=1;fillColor=#e8e8e8;" parent="1" vertex="1">
          <mxGeometry x="40" y="1621.59" width="100" height="60" as="geometry" />
        </mxCell>
        <mxCell id="fS7WWm2KH9zvgmKKYU2g-42" value="id" style="ellipse;whiteSpace=wrap;html=1;fillColor=#e8e8e8;" parent="1" vertex="1">
          <mxGeometry x="100" y="1691.59" width="100" height="60" as="geometry" />
        </mxCell>
        <mxCell id="fS7WWm2KH9zvgmKKYU2g-43" value="" style="endArrow=none;html=1;rounded=0;exitX=0.25;exitY=0;exitDx=0;exitDy=0;entryX=0.242;entryY=0.942;entryDx=0;entryDy=0;entryPerimeter=0;" parent="1" source="fS7WWm2KH9zvgmKKYU2g-3" target="fS7WWm2KH9zvgmKKYU2g-32" edge="1">
          <mxGeometry width="50" height="50" relative="1" as="geometry">
            <mxPoint x="-255" y="2041.59" as="sourcePoint" />
            <mxPoint x="-206" y="1781.59" as="targetPoint" />
          </mxGeometry>
        </mxCell>
        <mxCell id="fS7WWm2KH9zvgmKKYU2g-44" value="" style="endArrow=none;html=1;rounded=0;entryX=0.225;entryY=0.923;entryDx=0;entryDy=0;exitX=0.311;exitY=0.023;exitDx=0;exitDy=0;exitPerimeter=0;entryPerimeter=0;" parent="1" source="fS7WWm2KH9zvgmKKYU2g-3" target="fS7WWm2KH9zvgmKKYU2g-31" edge="1">
          <mxGeometry width="50" height="50" relative="1" as="geometry">
            <mxPoint x="-260" y="2031.59" as="sourcePoint" />
            <mxPoint x="-51.5" y="1808.59" as="targetPoint" />
          </mxGeometry>
        </mxCell>
        <mxCell id="fS7WWm2KH9zvgmKKYU2g-45" value="" style="endArrow=none;html=1;rounded=0;exitX=0.341;exitY=0.022;exitDx=0;exitDy=0;entryX=0;entryY=1;entryDx=0;entryDy=0;exitPerimeter=0;" parent="1" source="fS7WWm2KH9zvgmKKYU2g-3" target="fS7WWm2KH9zvgmKKYU2g-35" edge="1">
          <mxGeometry width="50" height="50" relative="1" as="geometry">
            <mxPoint x="-245" y="2051.59" as="sourcePoint" />
            <mxPoint x="-118" y="1798.59" as="targetPoint" />
          </mxGeometry>
        </mxCell>
        <mxCell id="fS7WWm2KH9zvgmKKYU2g-46" value="" style="endArrow=none;html=1;rounded=0;exitX=0.1;exitY=0.023;exitDx=0;exitDy=0;entryX=0.5;entryY=1;entryDx=0;entryDy=0;exitPerimeter=0;" parent="1" source="fS7WWm2KH9zvgmKKYU2g-3" target="fS7WWm2KH9zvgmKKYU2g-25" edge="1">
          <mxGeometry width="50" height="50" relative="1" as="geometry">
            <mxPoint x="-235" y="2061.59" as="sourcePoint" />
            <mxPoint x="-320" y="1761.59" as="targetPoint" />
          </mxGeometry>
        </mxCell>
        <mxCell id="fS7WWm2KH9zvgmKKYU2g-47" value="" style="endArrow=none;html=1;rounded=0;exitX=0.333;exitY=0;exitDx=0;exitDy=0;entryX=0.041;entryY=0.709;entryDx=0;entryDy=0;entryPerimeter=0;exitPerimeter=0;" parent="1" source="fS7WWm2KH9zvgmKKYU2g-3" target="fS7WWm2KH9zvgmKKYU2g-36" edge="1">
          <mxGeometry width="50" height="50" relative="1" as="geometry">
            <mxPoint x="-225" y="2071.59" as="sourcePoint" />
            <mxPoint x="-98" y="1818.59" as="targetPoint" />
          </mxGeometry>
        </mxCell>
        <mxCell id="fS7WWm2KH9zvgmKKYU2g-48" value="" style="endArrow=none;html=1;rounded=0;exitX=0.38;exitY=-0.021;exitDx=0;exitDy=0;entryX=0;entryY=0.5;entryDx=0;entryDy=0;exitPerimeter=0;" parent="1" source="fS7WWm2KH9zvgmKKYU2g-3" target="fS7WWm2KH9zvgmKKYU2g-37" edge="1">
          <mxGeometry width="50" height="50" relative="1" as="geometry">
            <mxPoint x="-180" y="2051.59" as="sourcePoint" />
            <mxPoint x="124" y="1884.59" as="targetPoint" />
          </mxGeometry>
        </mxCell>
        <mxCell id="fS7WWm2KH9zvgmKKYU2g-49" value="" style="endArrow=none;html=1;rounded=0;entryX=0;entryY=0.5;entryDx=0;entryDy=0;exitX=0.5;exitY=0;exitDx=0;exitDy=0;" parent="1" source="fS7WWm2KH9zvgmKKYU2g-3" target="fS7WWm2KH9zvgmKKYU2g-41" edge="1">
          <mxGeometry width="50" height="50" relative="1" as="geometry">
            <mxPoint x="-190" y="2081.59" as="sourcePoint" />
            <mxPoint x="134" y="1894.59" as="targetPoint" />
          </mxGeometry>
        </mxCell>
        <mxCell id="fS7WWm2KH9zvgmKKYU2g-50" value="" style="endArrow=none;html=1;rounded=0;exitX=0.5;exitY=0;exitDx=0;exitDy=0;entryX=0;entryY=0.5;entryDx=0;entryDy=0;" parent="1" source="fS7WWm2KH9zvgmKKYU2g-3" target="fS7WWm2KH9zvgmKKYU2g-38" edge="1">
          <mxGeometry width="50" height="50" relative="1" as="geometry">
            <mxPoint x="-160" y="2071.59" as="sourcePoint" />
            <mxPoint x="144" y="1904.59" as="targetPoint" />
          </mxGeometry>
        </mxCell>
        <mxCell id="fS7WWm2KH9zvgmKKYU2g-51" value="" style="endArrow=none;html=1;rounded=0;entryX=0;entryY=0.5;entryDx=0;entryDy=0;exitX=0.477;exitY=0.007;exitDx=0;exitDy=0;exitPerimeter=0;" parent="1" source="fS7WWm2KH9zvgmKKYU2g-3" edge="1">
          <mxGeometry width="50" height="50" relative="1" as="geometry">
            <mxPoint x="-180" y="2086.59" as="sourcePoint" />
            <mxPoint x="100" y="1731.59" as="targetPoint" />
          </mxGeometry>
        </mxCell>
        <mxCell id="fS7WWm2KH9zvgmKKYU2g-73" value="" style="endArrow=none;html=1;rounded=0;exitX=-0.006;exitY=0.478;exitDx=0;exitDy=0;entryX=1;entryY=0.5;entryDx=0;entryDy=0;exitPerimeter=0;" parent="1" source="UF56KhOBGK7OnS81mWjl-64" target="UF56KhOBGK7OnS81mWjl-146" edge="1">
          <mxGeometry width="50" height="50" relative="1" as="geometry">
            <mxPoint x="365" y="2236.59" as="sourcePoint" />
            <mxPoint x="465" y="1556.59" as="targetPoint" />
            <Array as="points">
              <mxPoint x="305" y="2370" />
              <mxPoint x="305" y="2881.59" />
              <mxPoint x="295" y="3626.59" />
            </Array>
          </mxGeometry>
        </mxCell>
        <mxCell id="RkeUdE9pvUmyKR1oSa5g-21" value="1" style="edgeLabel;html=1;align=center;verticalAlign=middle;resizable=0;points=[];" vertex="1" connectable="0" parent="fS7WWm2KH9zvgmKKYU2g-73">
          <mxGeometry x="0.1207" y="-3" relative="1" as="geometry">
            <mxPoint x="2" y="1" as="offset" />
          </mxGeometry>
        </mxCell>
        <mxCell id="RkeUdE9pvUmyKR1oSa5g-22" value="1" style="edgeLabel;html=1;align=center;verticalAlign=middle;resizable=0;points=[];" vertex="1" connectable="0" parent="fS7WWm2KH9zvgmKKYU2g-73">
          <mxGeometry x="-0.4553" y="2" relative="1" as="geometry">
            <mxPoint x="-1" as="offset" />
          </mxGeometry>
        </mxCell>
        <mxCell id="fS7WWm2KH9zvgmKKYU2g-74" value="" style="endArrow=none;html=1;rounded=0;entryX=1;entryY=0.5;entryDx=0;entryDy=0;exitX=0.408;exitY=-0.003;exitDx=0;exitDy=0;exitPerimeter=0;" parent="1" source="UF56KhOBGK7OnS81mWjl-86" target="UF56KhOBGK7OnS81mWjl-50" edge="1">
          <mxGeometry width="50" height="50" relative="1" as="geometry">
            <mxPoint x="455" y="1661.59" as="sourcePoint" />
            <mxPoint x="505" y="1611.59" as="targetPoint" />
            <Array as="points">
              <mxPoint x="535" y="1596.59" />
            </Array>
          </mxGeometry>
        </mxCell>
        <mxCell id="RkeUdE9pvUmyKR1oSa5g-23" value="1" style="edgeLabel;html=1;align=center;verticalAlign=middle;resizable=0;points=[];" vertex="1" connectable="0" parent="fS7WWm2KH9zvgmKKYU2g-74">
          <mxGeometry x="-0.0699" y="2" relative="1" as="geometry">
            <mxPoint as="offset" />
          </mxGeometry>
        </mxCell>
        <mxCell id="fS7WWm2KH9zvgmKKYU2g-77" value="" style="endArrow=none;html=1;rounded=0;entryX=1.002;entryY=0.226;entryDx=0;entryDy=0;exitX=0.5;exitY=0;exitDx=0;exitDy=0;entryPerimeter=0;" parent="1" source="UF56KhOBGK7OnS81mWjl-118" target="UF56KhOBGK7OnS81mWjl-170" edge="1">
          <mxGeometry width="50" height="50" relative="1" as="geometry">
            <mxPoint x="1265" y="1941.59" as="sourcePoint" />
            <mxPoint x="1315" y="1891.59" as="targetPoint" />
            <Array as="points">
              <mxPoint x="1235" y="1821.59" />
            </Array>
          </mxGeometry>
        </mxCell>
        <mxCell id="RkeUdE9pvUmyKR1oSa5g-24" value="1" style="edgeLabel;html=1;align=center;verticalAlign=middle;resizable=0;points=[];" vertex="1" connectable="0" parent="fS7WWm2KH9zvgmKKYU2g-77">
          <mxGeometry x="0.3301" y="2" relative="1" as="geometry">
            <mxPoint as="offset" />
          </mxGeometry>
        </mxCell>
        <mxCell id="fS7WWm2KH9zvgmKKYU2g-78" value="" style="endArrow=none;html=1;rounded=0;exitX=0.5;exitY=0;exitDx=0;exitDy=0;entryX=0.46;entryY=0.004;entryDx=0;entryDy=0;entryPerimeter=0;" parent="1" source="RkeUdE9pvUmyKR1oSa5g-16" target="UF56KhOBGK7OnS81mWjl-170" edge="1">
          <mxGeometry width="50" height="50" relative="1" as="geometry">
            <mxPoint x="1265" y="1901.59" as="sourcePoint" />
            <mxPoint x="1315" y="1851.59" as="targetPoint" />
          </mxGeometry>
        </mxCell>
        <mxCell id="RkeUdE9pvUmyKR1oSa5g-25" value="1" style="edgeLabel;html=1;align=center;verticalAlign=middle;resizable=0;points=[];" vertex="1" connectable="0" parent="fS7WWm2KH9zvgmKKYU2g-78">
          <mxGeometry x="0.0134" y="-2" relative="1" as="geometry">
            <mxPoint as="offset" />
          </mxGeometry>
        </mxCell>
        <mxCell id="RkeUdE9pvUmyKR1oSa5g-1" value="" style="endArrow=none;html=1;rounded=0;exitX=0.5;exitY=1;exitDx=0;exitDy=0;entryX=0;entryY=0.5;entryDx=0;entryDy=0;" edge="1" parent="1" source="fS7WWm2KH9zvgmKKYU2g-42" target="UF56KhOBGK7OnS81mWjl-66">
          <mxGeometry width="50" height="50" relative="1" as="geometry">
            <mxPoint x="-80" y="2258" as="sourcePoint" />
            <mxPoint x="410" y="2260" as="targetPoint" />
            <Array as="points">
              <mxPoint x="150" y="2280" />
            </Array>
          </mxGeometry>
        </mxCell>
        <mxCell id="RkeUdE9pvUmyKR1oSa5g-2" value="" style="endArrow=none;html=1;rounded=0;exitX=1;exitY=0;exitDx=0;exitDy=0;entryX=0;entryY=0.5;entryDx=0;entryDy=0;" edge="1" parent="1" source="fS7WWm2KH9zvgmKKYU2g-42" target="UF56KhOBGK7OnS81mWjl-187">
          <mxGeometry width="50" height="50" relative="1" as="geometry">
            <mxPoint x="400" y="1520" as="sourcePoint" />
            <mxPoint x="150" y="1490" as="targetPoint" />
            <Array as="points">
              <mxPoint x="630" y="1490" />
              <mxPoint x="630" y="940" />
            </Array>
          </mxGeometry>
        </mxCell>
        <mxCell id="RkeUdE9pvUmyKR1oSa5g-26" value="1" style="edgeLabel;html=1;align=center;verticalAlign=middle;resizable=0;points=[];" vertex="1" connectable="0" parent="RkeUdE9pvUmyKR1oSa5g-2">
          <mxGeometry x="0.2979" y="1" relative="1" as="geometry">
            <mxPoint as="offset" />
          </mxGeometry>
        </mxCell>
        <mxCell id="RkeUdE9pvUmyKR1oSa5g-3" value="" style="endArrow=none;html=1;rounded=0;exitX=0;exitY=0.5;exitDx=0;exitDy=0;entryX=0;entryY=0.5;entryDx=0;entryDy=0;" edge="1" parent="1" source="UF56KhOBGK7OnS81mWjl-14" target="UF56KhOBGK7OnS81mWjl-39">
          <mxGeometry width="50" height="50" relative="1" as="geometry">
            <mxPoint x="805" y="470" as="sourcePoint" />
            <mxPoint x="855" y="420" as="targetPoint" />
            <Array as="points">
              <mxPoint x="525" y="600" />
              <mxPoint x="525" y="270" />
            </Array>
          </mxGeometry>
        </mxCell>
        <mxCell id="RkeUdE9pvUmyKR1oSa5g-4" value="" style="endArrow=none;html=1;rounded=0;exitX=0;exitY=1;exitDx=0;exitDy=0;entryX=0.042;entryY=0.375;entryDx=0;entryDy=0;entryPerimeter=0;fontStyle=4" edge="1" parent="1" source="UF56KhOBGK7OnS81mWjl-187" target="UF56KhOBGK7OnS81mWjl-14">
          <mxGeometry width="50" height="50" relative="1" as="geometry">
            <mxPoint x="473" y="940" as="sourcePoint" />
            <mxPoint x="470" y="500" as="targetPoint" />
            <Array as="points">
              <mxPoint x="450" y="610" />
            </Array>
          </mxGeometry>
        </mxCell>
        <mxCell id="RkeUdE9pvUmyKR1oSa5g-20" value="1" style="edgeLabel;html=1;align=center;verticalAlign=middle;resizable=0;points=[];fontStyle=4" vertex="1" connectable="0" parent="RkeUdE9pvUmyKR1oSa5g-4">
          <mxGeometry x="-0.3152" y="-1" relative="1" as="geometry">
            <mxPoint x="-1" as="offset" />
          </mxGeometry>
        </mxCell>
        <mxCell id="RkeUdE9pvUmyKR1oSa5g-6" value="Show&lt;br&gt;" style="rhombus;whiteSpace=wrap;html=1;fillColor=#e8e8e8;" vertex="1" parent="1">
          <mxGeometry x="235" y="2850" width="140" height="80" as="geometry" />
        </mxCell>
        <mxCell id="RkeUdE9pvUmyKR1oSa5g-9" value="Use" style="rhombus;whiteSpace=wrap;html=1;fillColor=#e8e8e8;" vertex="1" parent="1">
          <mxGeometry x="560" y="1300" width="140" height="80" as="geometry" />
        </mxCell>
        <mxCell id="RkeUdE9pvUmyKR1oSa5g-11" value="Correspond" style="rhombus;whiteSpace=wrap;html=1;fillColor=#e8e8e8;" vertex="1" parent="1">
          <mxGeometry x="455" y="420" width="140" height="80" as="geometry" />
        </mxCell>
        <mxCell id="RkeUdE9pvUmyKR1oSa5g-12" value="Give" style="rhombus;whiteSpace=wrap;html=1;fillColor=#e8e8e8;" vertex="1" parent="1">
          <mxGeometry x="1197.5" y="1860" width="75" height="38.41" as="geometry" />
        </mxCell>
        <mxCell id="RkeUdE9pvUmyKR1oSa5g-17" value="" style="endArrow=none;html=1;rounded=0;exitX=0.5;exitY=0;exitDx=0;exitDy=0;entryX=0.5;entryY=0;entryDx=0;entryDy=0;" edge="1" parent="1" source="UF56KhOBGK7OnS81mWjl-119" target="RkeUdE9pvUmyKR1oSa5g-16">
          <mxGeometry width="50" height="50" relative="1" as="geometry">
            <mxPoint x="1335" y="1962" as="sourcePoint" />
            <mxPoint x="1336" y="1841" as="targetPoint" />
          </mxGeometry>
        </mxCell>
        <mxCell id="RkeUdE9pvUmyKR1oSa5g-16" value="Give" style="rhombus;whiteSpace=wrap;html=1;fillColor=#e8e8e8;" vertex="1" parent="1">
          <mxGeometry x="1297.5" y="1890" width="75" height="38.41" as="geometry" />
        </mxCell>
        <mxCell id="RkeUdE9pvUmyKR1oSa5g-18" value="Give" style="rhombus;whiteSpace=wrap;html=1;fillColor=#e8e8e8;" vertex="1" parent="1">
          <mxGeometry x="93.75" y="1991.59" width="112.5" height="70" as="geometry" />
        </mxCell>
      </root>
    </mxGraphModel>
  </diagram>
</mxfile>
